<?xml version="1.0" ?>
<!DOCTYPE svg  PUBLIC '-//W3C//DTD SVG 1.1//EN'  'http://www.w3.org/Graphics/SVG/1.1/DTD/svg11.dtd'>
<!-- Uploaded to: SVG Repo, www.svgrepo.com, Generator: SVG Repo Mixer Tools -->
<svg fill="#000000" width="800px" height="800px" viewBox="0 0 32 32" style="fill-rule:evenodd;clip-rule:evenodd;stroke-linejoin:round;stroke-miterlimit:2;" version="1.1" xml:space="preserve" xmlns="http://www.w3.org/2000/svg" xmlns:serif="http://www.serif.com/" xmlns:xlink="http://www.w3.org/1999/xlink">
<g transform="matrix(1,0,0,1,0,-288)">
<g transform="matrix(1.14286,0,0,0.857143,0.571429,43.7143)">
<path d="M17,294.333C17,293.045 16.216,292 15.25,292C12.56,292 7.44,292 4.75,292C3.784,292 3,293.045 3,294.333C3,298.316 3,306 3,306L17,306L17,294.333Z" style="fill:rgb(144,224,239);"/>
</g>
<g transform="matrix(1,0,0,1,-2,-1)">
<path d="M28.586,299.586C28.211,299.211 27.702,299 27.172,299C25.525,299 22,299 22,299L22,307L31,307L31,302.828C31,302.298 30.789,301.789 30.414,301.414C29.886,300.886 29.114,300.114 28.586,299.586Z" style="fill:rgb(144,224,239);"/>
</g>
<g transform="matrix(1,0,0,1.5,0,-157.5)">
<path d="M29,309L4,309L4,311.667C4,312.403 4.895,313 6,313C10.683,313 22.317,313 27,313C28.105,313 29,312.403 29,311.667C29,310.503 29,309 29,309Z" style="fill:rgb(144,224,239);"/>
</g>
<g transform="matrix(1,0,0,1,0,-2)">
<circle cx="10" cy="314" r="3" style="fill:rgb(144,224,239);"/>
</g>
<g transform="matrix(1,0,0,1,13,-2)">
<circle cx="10" cy="314" r="3" style="fill:rgb(144,224,239);"/>
</g>
<path d="M3,310L3,296C3,294.343 4.343,293 6,293L18,293C19.657,293 21,294.343 21,296L21,297L25.172,297C25.967,297 26.73,297.316 27.293,297.879L29.121,299.707C29.684,300.27 30,301.033 30,301.828L30,310C30,311.657 28.657,313 27,313L26.874,313C26.429,314.724 24.862,316 23,316C21.138,316 19.571,314.724 19.126,313L13.874,313C13.429,314.724 11.862,316 10,316C8.138,316 6.571,314.724 6.126,313L6,313C4.343,313 3,311.657 3,310ZM23,310C24.104,310 25,310.896 25,312C25,313.104 24.104,314 23,314C21.896,314 21,313.104 21,312C21,310.896 21.896,310 23,310ZM10,310C11.104,310 12,310.896 12,312C12,313.104 11.104,314 10,314C8.896,314 8,313.104 8,312C8,310.896 8.896,310 10,310ZM5,307L5,310C5,310.552 5.448,311 6,311L6.126,311C6.571,309.276 8.138,308 10,308C11.862,308 13.429,309.276 13.874,311L19.126,311C19.571,309.276 21.138,308 23,308C24.862,308 26.429,309.276 26.874,311L27,311C27.552,311 28,310.552 28,310L28,307L5,307ZM19,305L5,305C5,305 5,296 5,296C5,295.448 5.448,295 6,295C6,295 18,295 18,295C18.552,295 19,295.448 19,296L19,305ZM21,299L25.172,299C25.437,299 25.691,299.105 25.879,299.293L27.707,301.121C27.895,301.309 28,301.563 28,301.828L28,305L21,305L21,299Z" style="fill:rgb(25,144,167);"/>
</g>
</svg>